<svg height="256" width="256" xmlns="http://www.w3.org/2000/svg">
<polygon points="16,117 80,191 80,117" fill="Azure" />
<polygon points="42,234 42,148 38,148" fill="AliceBlue" />
<polygon points="249,185 249,110 54,110" fill="OliveDrab" />
<polygon points="114,229 114,206 69,206" fill="OliveDrab" />
<polygon points="41,169 41,1 8,169" fill="OliveDrab" />
<polygon points="180,216 180,129 89,129" fill="SteelBlue" />
<polygon points="10,211 10,53 89,211" fill="Azure" />
<polygon points="31,175 31,122 107,175" fill="MidnightBlue" />
<polygon points="233,145 233,231 157,231" fill="Plum" />
<polygon points="163,55 163,219 65,219" fill="Indigo" />
<polygon points="246,252 216,114 216,252" fill="DeepPink" />
<polygon points="26,159 26,100 77,100" fill="DarkMagenta" />
</svg>