<svg height="256" width="256" xmlns="http://www.w3.org/2000/svg">
<polygon points="115,71 13,241 13,71" fill="LavenderBlush" />
<polygon points="120,172 38,190 38,172" fill="FloralWhite" />
<polygon points="131,86 131,178 163,178" fill="Yellow" />
<polygon points="94,186 59,53 59,186" fill="Blue" />
<polygon points="11,17 11,226 12,226" fill="MediumOrchid" />
<polygon points="247,162 149,162 149,223" fill="DarkSeaGreen" />
<polygon points="134,111 134,91 122,91" fill="DarkSlateBlue" />
<polygon points="29,180 33,98 33,180" fill="FireBrick" />
<polygon points="52,170 159,167 159,170" fill="Aqua" />
<polygon points="192,100 143,85 143,100" fill="LightSteelBlue" />
<polygon points="198,14 198,239 196,14" fill="DarkOliveGreen" />
<polygon points="219,96 233,96 233,65" fill="DarkOliveGreen" />
</svg>