<svg height="256" width="256" xmlns="http://www.w3.org/2000/svg">
<polygon points="137,139 153,139 153,32" fill="DarkGrey" />
<polygon points="21,57 13,105 13,57" fill="Gold" />
<polygon points="51,236 11,236 11,103" fill="LightPink" />
<polygon points="76,72 76,103 15,103" fill="IndianRed" />
<polygon points="10,50 10,230 236,230" fill="LightYellow" />
<polygon points="34,153 34,128 240,153" fill="DarkGrey" />
<polygon points="209,83 1,71 1,83" fill="LightPink" />
<polygon points="89,214 5,214 5,57" fill="Olive" />
<polygon points="30,168 212,168 212,127" fill="PaleTurquoise" />
<polygon points="163,245 177,245 177,48" fill="MediumSeaGreen" />
<polygon points="120,5 138,5 138,6" fill="SkyBlue" />
<polygon points="74,45 156,77 156,45" fill="Fuchsia" />
</svg>