<svg height="256" width="256" xmlns="http://www.w3.org/2000/svg">
<polygon points="193,30 100,21 100,30" fill="LightSlateGrey" />
<polygon points="12,127 81,127 81,109" fill="Orchid" />
<polygon points="91,106 91,250 20,106" fill="White" />
<polygon points="215,92 164,129 164,92" fill="Silver" />
<polygon points="75,87 75,69 59,69" fill="MediumBlue" />
<polygon points="156,154 50,154 50,33" fill="Thistle" />
<polygon points="35,99 178,99 178,225" fill="DarkSlateGray" />
<polygon points="65,34 65,229 98,229" fill="Orange" />
<polygon points="152,200 152,10 148,10" fill="DeepPink" />
<polygon points="150,173 150,126 254,173" fill="OrangeRed" />
<polygon points="86,30 217,30 217,236" fill="SandyBrown" />
<polygon points="164,242 164,182 250,182" fill="Turquoise" />
</svg>