<svg height="256" width="256" xmlns="http://www.w3.org/2000/svg">
<polygon points="0,0 0,0 0,0" fill="AliceBlue" /><polygon points="0,0 0,0 0,0" fill="AliceBlue" /><polygon points="0,0 0,0 0,0" fill="AliceBlue" /><polygon points="0,0 0,0 0,0" fill="AliceBlue" /><polygon points="0,0 0,0 0,0" fill="AliceBlue" /><polygon points="0,0 0,0 0,0" fill="AliceBlue" /><polygon points="0,0 0,0 0,0" fill="AliceBlue" /><polygon points="0,0 0,0 0,0" fill="AliceBlue" /><polygon points="0,0 0,0 0,0" fill="AliceBlue" /><polygon points="0,0 0,0 0,0" fill="AliceBlue" /><polygon points="0,0 0,0 0,0" fill="AliceBlue" /><polygon points="0,0 0,0 0,0" fill="AliceBlue" /><polygon points="0,0 0,0 0,0" fill="AliceBlue" /><polygon points="0,0 0,0 0,0" fill="AliceBlue" /><polygon points="0,0 0,0 0,0" fill="AliceBlue" /><polygon points="0,0 0,0 0,0" fill="AliceBlue" /><polygon points="0,0 0,0 0,0" fill="AliceBlue" /><polygon points="0,0 0,0 0,0" fill="AliceBlue" /><polygon points="0,0 0,0 0,0" fill="AliceBlue" /><polygon points="0,0 0,0 0,0" fill="AliceBlue" /><polygon points="0,0 0,0 0,0" fill="AliceBlue" /><polygon points="0,0 0,0 0,0" fill="AliceBlue" /><polygon points="0,0 0,0 0,0" fill="AliceBlue" /><polygon points="0,0 0,0 0,0" fill="AliceBlue" /><polygon points="0,0 0,0 0,0" fill="AliceBlue" /><polygon points="0,0 0,0 0,0" fill="AliceBlue" /><polygon points="0,0 0,0 0,0" fill="AliceBlue" /><polygon points="0,0 0,0 0,0" fill="AliceBlue" /><polygon points="0,0 0,0 0,0" fill="AliceBlue" /><polygon points="0,0 0,0 0,0" fill="AliceBlue" /><polygon points="0,0 0,0 0,0" fill="AliceBlue" /><polygon points="0,0 0,0 0,0" fill="AliceBlue" /><polygon points="0,0 0,0 0,0" fill="AliceBlue" /><polygon points="0,0 0,0 0,0" fill="AliceBlue" /><polygon points="0,0 0,0 0,0" fill="AliceBlue" /><polygon points="0,0 0,0 0,0" fill="AliceBlue" /><polygon points="0,0 0,0 0,0" fill="AliceBlue" /><polygon points="0,0 0,0 0,0" fill="AliceBlue" /><polygon points="0,174 0,226 0,174" fill="DarkMagenta" /><polygon points="20,30 146,80 146,30" fill="White" /><polygon points="74,73 74,203 74,73" fill="Tomato" /><polygon points="227,240 227,191 216,191" fill="Azure" /><polygon points="213,152 179,20 179,152" fill="Fuchsia" /><polygon points="63,76 63,201 90,201" fill="DarkGray" /><polygon points="203,34 203,130 84,34" fill="PaleGoldenRod" /><polygon points="8,199 8,198 166,199" fill="PapayaWhip" /><polygon points="229,88 204,88 204,80" fill="White" /><polygon points="33,249 242,220 242,249" fill="LightCoral" /><polygon points="118,124 118,141 12,124" fill="BurlyWood" /><polygon points="73,247 73,154 53,247" fill="Red" /><polygon points="205,151 205,210 208,210" fill="SteelBlue" /></svg>