<svg height="256" width="256" xmlns="http://www.w3.org/2000/svg">
<polygon points="80,156 113,156 113,196" fill="Moccasin" />
<polygon points="98,37 98,61 46,61" fill="OldLace" />
<polygon points="171,82 154,81 154,82" fill="GoldenRod" />
<polygon points="18,242 18,209 253,209" fill="LightSkyBlue" />
<polygon points="114,85 251,78 251,85" fill="Gray" />
<polygon points="60,200 60,158 220,158" fill="Teal" />
<polygon points="77,254 77,189 198,189" fill="Magenta" />
<polygon points="14,144 14,116 233,144" fill="Sienna" />
<polygon points="179,232 123,232 123,83" fill="YellowGreen" />
<polygon points="44,227 67,227 67,131" fill="Cyan" />
<polygon points="118,173 118,188 155,188" fill="LightYellow" />
<polygon points="55,147 55,241 127,241" fill="ForestGreen" />
</svg>