<svg height="256" width="256" xmlns="http://www.w3.org/2000/svg">
<rect width="100%" height="100%" fill="LemonChiffon" />
<polygon points="236,30 221,30 221,86" fill="LightBlue" />
<polygon points="177,11 158,146 158,11" fill="DodgerBlue" />
<polygon points="212,200 212,227 192,200" fill="MediumBlue" />
<polygon points="45,175 66,62 66,175" fill="RoyalBlue" />
<polygon points="17,1 115,1 115,52" fill="PowderBlue" />
<polygon points="41,54 236,54 236,178" fill="PowderBlue" />
<polygon points="123,38 123,179 214,179" fill="DodgerBlue" />
<polygon points="144,170 144,145 68,170" fill="SkyBlue" />
<polygon points="92,48 17,115 17,48" fill="Blue" />
<polygon points="128,176 128,170 104,170" fill="RoyalBlue" />
<polygon points="105,82 155,134 155,82" fill="LightBlue" />
<polygon points="60,224 158,224 158,43" fill="DodgerBlue" />
</svg>