<svg height="256" width="256" xmlns="http://www.w3.org/2000/svg">
<rect width="100%" height="100%" fill="LemonChiffon" />
<polygon points="73,224 73,147 255,224" fill="LightSteelBlue" />
<polygon points="249,22 160,22 160,6" fill="Blue" />
<polygon points="89,5 172,5 172,171" fill="CornflowerBlue" />
<polygon points="57,72 106,72 106,150" fill="Navy" />
<polygon points="76,20 10,20 10,143" fill="MediumBlue" />
<polygon points="98,250 98,66 120,66" fill="SteelBlue" />
<polygon points="175,11 197,11 197,226" fill="DeepSkyBlue" />
<polygon points="127,19 127,241 239,241" fill="MediumBlue" />
<polygon points="192,18 142,18 142,125" fill="RoyalBlue" />
<polygon points="191,71 175,7 175,71" fill="DodgerBlue" />
</svg>